<?xml version="1.0" encoding="UTF-8" standalone="no"?>
<!-- Created with Inkscape (http://www.inkscape.org/) -->

<svg
   xmlns:dc="http://purl.org/dc/elements/1.1/"
   xmlns:cc="http://creativecommons.org/ns#"
   xmlns:rdf="http://www.w3.org/1999/02/22-rdf-syntax-ns#"
   xmlns:svg="http://www.w3.org/2000/svg"
   xmlns="http://www.w3.org/2000/svg"
   xmlns:xlink="http://www.w3.org/1999/xlink"
   xmlns:sodipodi="http://sodipodi.sourceforge.net/DTD/sodipodi-0.dtd"
   xmlns:inkscape="http://www.inkscape.org/namespaces/inkscape"
   width="28.786667mm"
   height="28.786667mm"
   viewBox="0 0 102 102"
   id="svg2"
   version="1.1"
   inkscape:version="0.91 r13725"
   sodipodi:docname="logo.svg">
  <defs
     id="defs4" />
  <sodipodi:namedview
     id="base"
     pagecolor="#ffffff"
     bordercolor="#666666"
     borderopacity="1.0"
     inkscape:pageopacity="0.0"
     inkscape:pageshadow="2"
     inkscape:zoom="1.4142136"
     inkscape:cx="210.57536"
     inkscape:cy="27.393756"
     inkscape:document-units="px"
     inkscape:current-layer="layer1"
     showgrid="false"
     showguides="true"
     inkscape:guide-bbox="true"
     fit-margin-top="0"
     fit-margin-left="0"
     fit-margin-right="0"
     fit-margin-bottom="0"
     inkscape:window-width="1325"
     inkscape:window-height="747"
     inkscape:window-x="2"
     inkscape:window-y="21"
     inkscape:window-maximized="0" />
  <metadata
     id="metadata7">
    <rdf:RDF>
      <cc:Work
         rdf:about="">
        <dc:format>image/svg+xml</dc:format>
        <dc:type
           rdf:resource="http://purl.org/dc/dcmitype/StillImage" />
        <dc:title></dc:title>
      </cc:Work>
    </rdf:RDF>
  </metadata>
  <g
     inkscape:label="Layer 1"
     inkscape:groupmode="layer"
     id="layer1"
     transform="translate(-49.856071,-851.36218)">
    <circle
       r="51"
       cy="902.36218"
       cx="100.85607"
       style="fill:#ffffff;fill-opacity:1;stroke:none"
       id="circle4993"
       inkscape:export-xdpi="352.94"
       inkscape:export-ydpi="352.94" />
    <circle
       id="path3924"
       style="fill:#cacaca;fill-opacity:1;stroke:none"
       cx="100.85607"
       cy="902.36218"
       r="50"
       inkscape:export-xdpi="352.94"
       inkscape:export-ydpi="352.94" />
    <circle
       style="fill:#cacaca;fill-opacity:1;stroke:none"
       id="path3926"
       cx="100.85608"
       cy="902.36218"
       r="48.968521"
       inkscape:export-xdpi="352.94"
       inkscape:export-ydpi="352.94" />
    <circle
       style="fill:#cacaca;fill-opacity:1;stroke:none"
       id="path3928"
       transform="matrix(-0.98077923,0.19512074,0.19512074,0.98077923,0,0)"
       cx="77.151726"
       cy="904.69714"
       r="45.974922"
       inkscape:export-xdpi="352.94"
       inkscape:export-ydpi="352.94" />
    <circle
       transform="matrix(-0.78345275,-0.62145136,0.62145136,-0.78345275,0,0)"
       id="path3930"
       style="fill:#cacaca;fill-opacity:1;stroke:none"
       cx="-639.79022"
       cy="-644.28064"
       r="39.563519"
       inkscape:export-xdpi="352.94"
       inkscape:export-ydpi="352.94" />
    <text
       sodipodi:linespacing="125%"
       id="text3936"
       style="font-style:normal;font-variant:normal;font-weight:normal;font-stretch:normal;font-size:8.27322483px;line-height:125%;font-family:Keifont;-inkscape-font-specification:Keifont;text-align:start;letter-spacing:0px;word-spacing:0px;writing-mode:lr-tb;text-anchor:start;fill:#cacaca;fill-opacity:1;stroke:none"
       xml:space="preserve"
       x="187.80531"
       y="791.24854"
       inkscape:export-xdpi="352.94"
       inkscape:export-ydpi="352.94"><textPath
         id="textPath3938"
         xlink:href="#path2994"><tspan
   style="fill:#cacaca;fill-opacity:1;stroke:none"
   id="tspan3940">de la Programmation en Ligne</tspan></textPath></text>
    <circle
       id="path3954"
       style="fill:#cacaca;fill-opacity:1;stroke:none"
       cx="100.85635"
       cy="902.36212"
       r="36.55864"
       inkscape:export-xdpi="352.94"
       inkscape:export-ydpi="352.94" />
    <circle
       style="fill:#cacaca;fill-opacity:1;stroke:none"
       id="path3968"
       cx="100.85636"
       cy="902.36206"
       r="35.73399"
       inkscape:export-xdpi="352.94"
       inkscape:export-ydpi="352.94" />
    <g
       id="g3974"
       display="inline"
       style="display:inline;fill:#cacaca;fill-opacity:1;stroke:none"
       transform="matrix(0.09545638,0,0,0.09545638,65.437569,855.1507)" />
    <g
       id="g3976"
       display="inline"
       style="display:inline;fill:#cacaca;fill-opacity:1;stroke:none"
       transform="matrix(0.09545638,0,0,0.09545638,65.437569,855.1507)"
       inkscape:export-xdpi="352.94"
       inkscape:export-ydpi="352.94">
      <g
         id="g3978"
         style="fill:#cacaca;fill-opacity:1;stroke:none">
        <path
           id="path3980"
           d="M 209.27003,228.48717 C 126.4415,284.23868 71.502114,381.4379 71.502114,492.04376 c 0,172.91974 134.165746,313.24481 299.495476,313.24481 165.32974,0 299.52719,-140.32507 299.52719,-313.24481 0,-114.14724 -58.51019,-214.06506 -145.81787,-268.82707 -19.97232,-9.62544 -109.79462,-64.7486 0,9.94428 27.8714,18.10281 52.91516,40.93635 73.36847,67.65425 50.72357,64.73883 73.04718,152.25247 61.4837,235.08279 -11.21167,85.65808 -60.05896,164.25775 -128.95733,211.31598 -67.71393,47.29217 -154.87152,61.45325 -233.51139,39.8103 C 213.16785,764.93329 141.19046,700.4173 105.47663,618.10406 67.1747,532.0766 71.757769,426.94898 115.87182,344.3049 c 22.15823,-42.64279 54.81576,-78.76581 93.39822,-105.64142 109.04759,-81.63547 27.96579,-29.22285 0,-10.17631 z"
           stroke-miterlimit="4"
           inkscape:connector-curvature="0"
           style="fill:#cacaca;fill-opacity:1;stroke:none;stroke-miterlimit:4" />
        <path
           id="path3982"
           d="m 242.66653,842.78296 c 0.003,-1.15363 58.1467,-30.1543 68.56089,-34.19641 14.37277,-5.57855 38.0632,-9.59253 46.46023,-7.87195 l 6.10303,1.25055 -6.81552,8.15765 c -3.74851,4.4867 -9.97659,10.35834 -13.84015,13.04804 -9.32288,6.49041 -32.13315,14.25207 -49.59509,16.87573 -12.30109,1.84827 -50.87615,3.9231 -50.87339,2.73639 z m 231.51474,-0.63641 c -26.10784,-1.57666 -28.09448,-1.94068 -52.43368,-9.60767 -14.56162,-4.58698 -18.2858,-6.80396 -29.52701,-17.57745 L 379.3569,802.633 l 5.68009,-1.59082 c 14.61316,-4.09284 61.50937,9.40771 82.04812,23.61999 3.9029,2.70075 9.33185,5.57886 12.0643,6.39581 6.22785,1.86194 23.8469,10.86853 23.8469,12.19013 0,0.54101 -1.11783,0.8385 -2.48404,0.66107 -1.36624,-0.17743 -13.21518,-0.97058 -26.331,-1.76263 z M 190.00562,807.21582 c -10.92984,-3.39703 -23.76122,-7.28949 -28.5142,-8.6499 l -8.64173,-2.47357 14.60346,-2.52802 c 8.03191,-1.39044 23.27091,-4.30188 33.86445,-6.46985 29.54055,-6.04559 59.12945,-4.28949 78.26989,4.64533 l 5.11688,2.38855 -6.38928,5.71527 c -16.73596,14.9704 -53.88427,18.07159 -88.30948,7.37219 z m 295.24386,2.35339 c -14.21521,-5.23754 -27.20087,-14.3526 -23.48361,-16.48382 7.76636,-4.45288 33.67938,-9.93274 46.9696,-9.93274 12.25306,0 44.52484,5.05774 75.31208,11.80316 5.80383,1.27161 3.35253,2.39252 -22.05103,10.0835 -24.92975,7.54754 -30.96789,8.64349 -47.26813,8.57947 -13.38104,-0.0526 -21.75171,-1.20252 -29.47891,-4.04957 z M 320.87997,793.14728 c -12.54528,-3.72418 -38.64837,-33.9953 -43.40692,-50.33795 l -1.37256,-4.71381 8.58277,4.4859 c 4.72052,2.46729 14.76504,6.64026 22.3212,9.27332 25.1307,8.75714 36.68856,18.22491 43.93298,35.9884 l 3.06903,7.52533 -13.44058,-0.18366 c -7.39228,-0.10095 -16.25098,-1.01788 -19.68592,-2.03753 z m 70.83078,-1.40637 c 0,-5.54908 14.16828,-23.64557 23.42829,-29.92383 4.08649,-2.77063 13.159,-6.96436 20.1611,-9.3194 7.00211,-2.35504 17.13715,-6.45953 22.52231,-9.12115 l 9.79123,-4.8393 -1.26569,5.16669 c -3.05826,12.48383 -22.43255,37.76184 -34.492,45.00244 -6.9252,4.15796 -12.31858,5.53491 -24.51203,6.25812 -14.70324,0.87201 -15.63321,0.68024 -15.63321,-3.22357 z m -125.19632,-9.99903 c -21.47732,-7.84833 -36.67408,-25.61779 -44.79051,-52.37323 -2.74579,-9.05133 -5.54587,-20.40875 -6.22239,-25.23864 l -1.23005,-8.78156 26.76474,27.10535 c 27.61911,27.97052 33.25147,36.3399 34.97037,51.96417 0.99942,9.08417 -0.8244,10.49133 -9.49216,7.32391 z m 201.24982,-6.69854 c 2.34866,-17.93982 12.54138,-31.68262 50.34,-67.87317 l 12.12713,-11.61115 -1.61358,10.45771 c -5.17017,33.50805 -22.24707,62.68841 -42.2789,72.24444 -5.59369,2.6684 -12.3002,4.86066 -14.90332,4.87158 -4.37345,0.0184 -4.65232,-0.59607 -3.67133,-8.08941 z M 156.22247,763.03565 c -22.87613,-7.27277 -28.80013,-10.28748 -50.70142,-25.80194 -12.126459,-8.59015 -21.776102,-15.8183 -21.443705,-16.06257 3.002571,-2.20629 74.661805,5.79529 80.939115,9.03785 1.72119,0.8891 8.94216,4.51733 16.04654,8.06274 7.1044,3.54535 16.40659,9.58539 20.67153,13.42218 l 7.75445,6.97607 -7.13286,3.05335 c -11.85428,5.07446 -32.45648,5.66058 -46.13365,1.31232 z m 394.75257,1.63928 c -4.76172,-0.95911 -9.92634,-2.82245 -11.47681,-4.14081 -3.65808,-3.11035 -0.18048,-7.23303 14.55328,-17.2525 16.30249,-11.08637 34.70917,-16.79169 61.6156,-19.09839 34.64179,-2.96985 44.05628,-3.30731 42.98743,-1.54083 -2.28156,3.77081 -43.20978,30.36908 -52.76257,34.28924 -22.27875,9.14234 -37.39142,11.27319 -54.91693,7.74329 z M 193.5076,737.74585 c -12.48043,-9.64837 -23.7012,-26.08313 -26.34825,-38.59143 -1.26538,-5.97949 -1.98223,-22.31573 -1.62978,-37.14209 l 0.62912,-26.46765 7.26219,14.25183 c 3.99417,7.8385 9.6033,17.75836 12.46465,22.04413 13.89822,20.81689 21.65255,49.02868 17.84253,64.91473 l -1.799,7.50098 -8.42146,-6.5105 z M 541.224,723.82013 c 1.05169,-21.95709 4.43432,-32.79352 14.95208,-47.90057 2.47083,-3.54889 8.41694,-13.97766 13.21357,-23.17499 l 8.72113,-16.72247 1.3916,17.11535 c 1.6734,20.58173 -1.12445,46.98401 -6.13721,57.91333 -3.91522,8.53644 -20.78845,27.07917 -28.47754,31.29511 l -4.67376,2.56268 1.01013,-21.08844 z m -423.02033,-25.099 c -6.70156,-1.51855 -15.19091,-4.35376 -18.865232,-6.30041 -11.991142,-6.35291 -32.429771,-24.48511 -41.409981,-36.737 -4.835621,-6.59729 -11.477299,-14.97272 -14.759319,-18.612 -6.731209,-7.46405 -6.334419,-7.81134 4.21159,-3.6864 4.120811,1.61181 12.517872,3.94244 18.66011,5.17926 12.829178,2.58313 35.049892,12.98846 47.552652,22.26751 9.50161,7.0517 24.29411,23.9726 28.85274,33.00415 2.71128,5.37158 2.66458,5.84381 -0.58024,5.86933 -1.94076,0.0153 -5.3172,0.42132 -7.50317,0.90222 -2.18596,0.4809 -9.45758,-0.3681 -16.15916,-1.88666 z m 487.63245,1.5517 c -3.00574,-0.47608 -5.46491,-1.32861 -5.46491,-1.89472 0,-4.04516 12.15381,-20.71716 21.62275,-29.66101 13.07446,-12.34936 39.90002,-26.84112 55.97753,-30.24017 5.95759,-1.25958 14.75177,-3.61041 19.54267,-5.22412 10.32226,-3.47681 12.55383,-2.4574 5.29199,2.41742 -2.87158,1.92761 -8.29864,8.18512 -12.06024,13.90546 -11.62451,17.67804 -17.97455,23.74035 -42.39142,40.47082 -9.2038,6.30646 -32.25769,11.85126 -42.51837,10.22632 z M 134.83639,673.22516 c -5.1529,-6.1676 -7.61762,-11.89716 -10.10312,-23.48596 -1.80815,-8.43054 -3.28754,-18.86603 -3.28754,-23.19013 0,-11.32177 7.25431,-45.79541 11.73798,-55.7807 3.7732,-8.40313 3.82746,-8.43579 4.00097,-2.4107 0.0968,3.35937 3.29048,18.93451 7.09716,34.61151 4.33615,17.8573 6.93084,33.49859 6.94689,41.87689 0.0254,13.22998 -4.38867,33.25189 -7.80802,35.41699 -0.97277,0.61597 -4.83571,-2.55108 -8.58432,-7.0379 z m 463.81473,2.43683 c -8.04864,-20.83521 -7.74182,-34.4563 1.6377,-72.69281 3.2962,-13.43744 6.00458,-26.8971 6.01855,-29.9104 0.0829,-17.8017 8.80268,2.3089 13.9682,32.21527 4.96497,28.7453 -1.46966,62.23834 -13.74328,71.53516 l -5.75421,4.35858 -2.12696,-5.5058 z M 81.978309,618.13776 C 67.731902,612.95459 53.464298,601.47266 44.955779,588.34369 41.117938,582.42176 32.64767,566.55152 26.132958,553.0766 l -11.844939,-24.49994 9.36271,5.51514 c 5.1495,3.03332 14.589481,9.23547 20.977772,13.78259 6.388268,4.54712 14.751308,10.21784 18.584499,12.60175 14.38821,8.94794 30.71104,35.03577 33.632336,53.75262 1.475464,9.45319 0.834717,9.62165 -14.867027,3.909 z m 564.099451,1.05353 c 0,-1.71582 2.8078,-10.57898 6.2395,-19.69599 7.02344,-18.65905 16.31824,-30.41369 33.27234,-42.07824 15.50122,-10.66498 40.78247,-26.71088 42.09637,-26.71839 2.09729,-0.0121 -23.94598,51.85059 -30.83929,61.41345 -8.06653,11.19043 -21.40198,21.08307 -35.57495,26.39045 -12.34485,4.62286 -15.19397,4.75201 -15.19397,0.68872 z M 95.804351,592.84979 c -5.348053,-14.6444 -5.413429,-33.16339 -0.178429,-50.52801 4.257317,-14.12146 29.772348,-56.50333 29.676998,-49.29507 -0.31342,23.69729 -4.28445,71.21554 -6.57063,78.62619 -3.90094,12.64483 -9.90974,24.40728 -14.76753,28.90814 -3.93004,3.64123 -4.059083,3.51935 -8.160409,-7.71125 z M 639.5874,600.4242 c -4.79889,-5.45935 -12.5935,-22.79859 -15.17779,-33.76307 -2.03083,-8.61633 -6.58802,-74.76391 -5.25122,-76.22174 1.48687,-1.62161 25.4458,39.00574 29.14312,49.41834 6.12165,17.23987 6.06244,41.18213 -0.13458,54.45856 -2.48273,5.31897 -4.72412,9.67089 -4.9809,9.67089 -0.25671,0 -1.87609,-1.60333 -3.59863,-3.56298 z M 59.452888,527.42456 C 41.281639,515.16449 31.021829,494.44718 25.17551,458.20957 c -1.644171,-10.1912 -3.63028,-20.26923 -4.413601,-22.39569 -1.09268,-2.9664 0.24473,-2.44471 5.746181,2.2416 3.94368,3.35935 9.356068,7.6583 12.027519,9.55323 8.363609,5.93246 29.678646,38.43615 33.574512,51.1983 4.403465,14.42517 4.957397,35.95709 0.925018,35.95709 -1.487213,0 -7.599243,-3.30273 -13.582253,-7.33954 z m 609.151662,-7.81427 c 1.47205,-17.84149 6.06153,-31.25964 15.40668,-45.04446 6.99011,-10.31085 36.9516,-41.60028 39.83484,-41.60028 0.8927,0 0.74109,2.37655 -0.33679,5.28122 -1.07801,2.90472 -3.21588,13.21179 -4.75098,22.90469 -5.39697,34.07694 -16.76276,55.93173 -34.83502,66.98288 -16.09461,9.8418 -16.80164,9.44836 -15.31873,-8.52405 z M 80.658684,509.62113 c -0.902634,-7.40149 -0.295387,-15.06665 1.895126,-23.92267 5.489021,-22.19132 11.578667,-32.28549 30.91543,-51.24521 9.852,-9.65988 17.9127,-17.09616 17.9127,-16.52502 0,0.57113 -1.42991,5.7915 -3.17766,11.60083 -9.67395,32.15597 -15.72227,49.78863 -19.29441,56.24905 -5.48765,9.92483 -23.678768,34.73422 -25.468327,34.73422 -0.800072,0 -2.052361,-4.90106 -2.78286,-10.8912 z m 571.855476,1.05386 c -16.11908,-19.58505 -24.7923,-39.50671 -39.15039,-89.92526 l -1.44946,-5.08994 4.93219,5.08994 c 2.71276,2.79947 11.65899,11.79214 19.88049,19.9837 12.73657,12.69013 15.74371,17.05802 20.32483,29.52158 5.71667,15.55307 8.42047,38.01474 5.51263,45.7962 -1.69873,4.54584 -2.02991,4.36865 -10.05029,-5.37622 z M 66.6203,443.36746 c -15.861301,-9.9093 -22.195511,-31.86392 -19.69899,-68.27725 0.850159,-12.40002 1.567791,-25.45047 1.594749,-29.00097 0.04763,-6.27582 0.23772,-6.13416 6.82951,5.0899 3.729271,6.34998 8.018692,12.95081 9.532063,14.66855 4.086937,4.63885 11.932686,23.86774 14.796684,36.26474 2.517151,10.89578 1.894707,22.34073 -2.026489,37.26001 -2.369629,9.01593 -2.762817,9.15836 -11.027527,3.99503 z m 600.90478,-0.73104 c -1.61291,-2.90949 -2.5448,-12.38092 -2.55395,-25.95862 -0.0136,-20.02826 0.39123,-22.21308 6.41394,-34.61151 3.53577,-7.2786 10.33496,-19.40784 15.10944,-26.95383 l 8.68084,-13.72003 1.7038,19.82794 c 2.99573,34.862 0.8551,54.29214 -7.74689,70.31882 -3.52679,6.57086 -13.91412,15.67816 -17.88177,15.67816 -0.65229,0 -2.32874,-2.0614 -3.72541,-4.58093 z M 85.675376,429.79517 c 0,-17.21411 9.870705,-36.08332 26.917614,-51.45648 7.17725,-6.47263 42.01916,-26.81199 45.92962,-26.81199 0.58641,0 -1.75365,3.4357 -5.20018,7.63492 -3.44656,4.19916 -11.64218,15.88056 -18.21248,25.95859 -13.1597,20.18539 -26.15459,34.88211 -38.86279,43.95236 -10.122238,7.22452 -10.571785,7.25525 -10.571785,0.7226 z m 563.347754,-0.15143 c -11.78076,-7.97607 -28.58282,-25.18649 -32.86896,-33.66766 -5.86017,-11.59601 -15.89245,-26.44046 -23.12011,-34.21015 -3.61548,-3.8866 -6.57355,-7.84051 -6.57355,-8.78653 0,-0.94598 9.00171,3.10291 20.00372,8.99756 15.68317,8.40265 22.75141,13.70157 32.72492,24.53333 12.67877,13.76971 15.52057,19.77182 19.82617,41.87432 1.56073,8.012 0.22955,8.17975 -9.99219,1.25913 z M 88.287581,361.31659 C 75.41902,338.97116 75.916998,324.44889 91.13085,278.40271 l 5.661385,-17.13476 6.718005,20.87942 c 5.29348,16.452 6.71308,24.18674 6.69466,36.4765 -0.0256,17.11359 -5.40191,34.93689 -13.418723,44.48551 l -4.42849,5.27469 -4.070107,-7.06748 z m 560.425739,4.16196 c -1.19037,-1.51471 -4.7295,-7.79303 -7.86487,-13.95184 -5.30133,-10.41376 -5.69159,-12.76603 -5.57318,-33.59354 0.11358,-19.98758 0.78808,-24.147 6.27282,-38.68344 3.71259,-9.83945 6.60425,-15.07871 7.30408,-13.23383 8.7063,22.9512 17.02057,53.91437 17.06397,63.54773 0.0387,8.60269 -6.44556,27.79682 -11.58905,34.30448 -2.82355,3.57244 -3.84229,3.86468 -5.61377,1.61044 z M 108.68505,353.05368 c 6.84402,-22.11215 35.12511,-43.24463 68.73804,-51.36303 19.75733,-4.77192 21.14893,-4.0322 9.41195,5.00305 -5.78875,4.45624 -13.7033,11.14886 -17.58791,14.87259 -16.6368,15.94754 -49.10076,35.9974 -58.36833,36.04843 -2.84301,0.0157 -3.30986,-0.95493 -2.19375,-4.56104 z m 518.70795,3.11774 c -7.07342,-1.85388 -27.9812,-14.6929 -38.94525,-23.91538 -6.01141,-5.05658 -17.36316,-14.44555 -25.22613,-20.86444 -7.86298,-6.41888 -13.99213,-11.98239 -13.62024,-12.36337 1.87542,-1.92139 26.93475,4.66293 41.46704,10.89542 18.63452,7.99185 33.91327,21.06527 40.81354,34.92248 6.30371,12.65936 5.76709,14.01334 -4.48896,11.32529 z M 125.80864,289.93857 c -3.00683,-14.19635 -1.24229,-31.27731 4.4371,-42.95158 2.80751,-5.77097 10.84433,-17.62276 17.85963,-26.33736 l 12.7551,-15.84474 1.38902,13.28859 c 3.04668,29.14709 -3.92868,53.38513 -20.09002,69.80914 -5.78487,5.87888 -11.41797,10.68881 -12.51802,10.68881 -1.10004,0 -2.82483,-3.8938 -3.83281,-8.65286 z m 478.02076,-0.32828 c -5.57525,-5.26803 -11.6817,-13.82748 -14.87268,-20.84701 -4.84399,-10.65601 -5.48803,-14.69446 -6.12042,-38.37686 l -0.70672,-26.46764 7.63037,8.9765 c 22.11902,26.02118 28.13397,37.252 29.78643,55.61595 1.09961,12.22003 -1.78283,30.10553 -4.84429,30.0585 -0.77759,-0.0119 -5.67029,-4.04367 -10.87269,-8.95944 z m -448.31395,-7.4443 c 16.97904,-16.45938 33.98029,-22.28253 64.89341,-22.22681 21.85026,0.0394 25.72728,2.15671 12.92883,7.06067 -5.25191,2.01239 -16.70303,7.28519 -25.4469,11.71738 -17.41995,8.83001 -35.90543,13.67627 -52.37534,13.73098 l -10.64328,0.0353 10.64328,-10.31756 z M 565.59448,289.59 c -6.55792,-1.37204 -20.41895,-6.64758 -30.80231,-11.72348 -10.3833,-5.07587 -22.2232,-10.45755 -26.31085,-11.95929 -10.70703,-3.93356 -5.69003,-5.93121 14.98871,-5.96805 31.77002,-0.0566 51.91339,7.34192 68.84521,25.28641 l 6.84839,7.25796 -10.82287,-0.19946 c -5.95258,-0.10971 -16.18842,-1.32205 -22.74628,-2.69409 z M 210.3529,247.77487 c -4.11078,-0.81672 -8.03879,-2.06353 -8.72896,-2.77061 -2.25389,-2.30911 3.21067,-6.95534 13.78159,-11.71781 15.87128,-7.15042 40.56712,-6.70222 63.52916,1.15299 9.56363,3.27167 17.3884,6.67573 17.3884,7.56464 0,0.88887 -3.35349,1.62374 -7.45215,1.63307 -4.09869,0.009 -17.28903,1.36567 -29.31186,3.01419 -23.32924,3.19881 -37.1705,3.51483 -49.20618,1.12353 z m 281.71356,-0.0414 c -6.55789,-0.9137 -19.34466,-2.35152 -28.41503,-3.19523 -9.07038,-0.84368 -15.77732,-2.24995 -14.90433,-3.12504 3.35614,-3.36411 32.09079,-11.9 44.41376,-13.19348 14.91619,-1.56569 34.52682,2.65999 43.82522,9.44336 6.6239,4.83229 7.17639,6.99791 2.27741,8.92665 -5.68103,2.23662 -34.36402,2.93168 -47.19702,1.14374 z M 182.18168,240.3519 c -4.35086,-17.76033 8.67873,-39.78556 33.84348,-57.20903 6.45595,-4.46989 13.65614,-9.16314 16.00041,-10.42942 l 4.26236,-2.30231 -3.5437,14.11455 c -4.98642,19.86075 -10.58838,30.67122 -22.10561,42.65844 -8.15411,8.48688 -22.37085,18.4721 -26.30012,18.4721 -0.47157,0 -1.44211,-2.38698 -2.15682,-5.30432 z m 368.30538,1.24283 c -9.33924,-5.05015 -27.2829,-25.23294 -31.88465,-35.86346 -3.80169,-8.78226 -10.43255,-33.26479 -9.30661,-34.36186 0.36072,-0.35141 7.13944,3.66168 15.06382,8.91801 16.03295,10.63481 33.31225,30.01624 36.49108,40.9303 2.41797,8.30164 1.66968,22.847 -1.21801,23.67682 -1.09296,0.31409 -5.2085,-1.17082 -9.14563,-3.29981 z M 245.72982,204.42778 c 4.1447,-19.71803 14.40296,-27.82977 45.62516,-36.07802 7.65088,-2.02122 15.56604,-4.36953 17.58923,-5.21844 6.9773,-2.92772 -2.07117,10.8341 -17.5516,26.69414 -14.87107,15.23571 -26.51557,21.21922 -41.2947,21.21922 -5.4577,0 -5.6862,-0.34605 -4.36809,-6.6169 z m 231.56763,3.26405 c -4.84396,-1.73712 -12.34289,-6.04527 -16.66424,-9.57366 -7.37073,-6.01821 -29.69684,-34.04754 -28.27778,-35.50141 0.357,-0.36574 4.99543,0.71431 10.30762,2.40009 5.3122,1.68579 15.34552,4.71505 22.2963,6.7317 19.35397,5.61528 34.06247,20.79715 34.06247,35.1588 0,3.33037 -1.25968,4.11838 -6.45853,4.04015 -3.55222,-0.0535 -10.42182,-1.5185 -15.26584,-3.25567 z"
           inkscape:connector-curvature="0"
           style="fill:#cacaca;fill-opacity:1;stroke:none" />
      </g>
    </g>
    <circle
       r="49.186146"
       cy="902.36224"
       cx="100.85608"
       style="fill:#ffffff;fill-opacity:1;stroke:#76a458;stroke-width:0.61039209;stroke-miterlimit:4;stroke-dasharray:none;stroke-opacity:1"
       id="path3108"
       inkscape:export-xdpi="352.94"
       inkscape:export-ydpi="352.94" />
    <circle
       r="48.171455"
       cy="902.36218"
       cx="100.85608"
       id="path3034"
       style="fill:#76a458;fill-opacity:1;stroke:none"
       inkscape:export-xdpi="352.94"
       inkscape:export-ydpi="352.94" />
    <circle
       r="45.226585"
       cy="904.69714"
       cx="77.151741"
       transform="matrix(-0.98077923,0.19512074,0.19512074,0.98077923,0,0)"
       id="path2994"
       style="fill:none;stroke:none"
       inkscape:export-xdpi="352.94"
       inkscape:export-ydpi="352.94" />
    <circle
       r="38.91954"
       cy="-644.28064"
       cx="-639.79022"
       style="fill:none;stroke:none"
       id="path2985"
       transform="matrix(-0.78345274,-0.62145137,0.62145137,-0.78345274,0,0)"
       inkscape:export-xdpi="352.94"
       inkscape:export-ydpi="352.94" />
    <circle
       r="35.96357"
       cy="902.36212"
       cx="100.85634"
       style="fill:#ffffff;fill-opacity:1;stroke:none"
       id="path3019"
       inkscape:export-xdpi="352.94"
       inkscape:export-ydpi="352.94" />
    <circle
       r="35.152344"
       cy="902.36212"
       cx="100.85636"
       id="path3888"
       style="fill:none;stroke:#cacaca;stroke-width:0.61039209;stroke-miterlimit:4;stroke-dasharray:none;stroke-opacity:1"
       inkscape:export-xdpi="352.94"
       inkscape:export-ydpi="352.94" />
    <path
       inkscape:connector-curvature="0"
       id="path4665"
       d="m 107.01757,932.09245 c 0.42209,-0.74772 -1.8773,-0.31797 -1.68563,-1.61642 -0.45106,-0.27178 -0.94126,1.08577 -1.71193,0.44806 -1.97583,-0.15685 -4.07143,-0.72733 -5.49234,-2.18023 -0.57116,-0.87518 0.88934,-1.73227 -0.15152,-2.60811 0.11311,-1.31457 0.16678,-2.6304 -0.0272,-3.94903 -0.30768,-0.90668 -1.87245,-3.09295 -2.443338,-1.27075 -0.185367,1.3705 -0.176874,2.71071 0.205572,4.04944 0.157663,0.83381 0.584171,2.291 -0.805467,1.62127 -1.355238,-0.3723 -3.198032,-0.43508 -3.905672,-1.85246 -0.713948,-1.43063 0.198573,-2.8742 -0.247367,-4.35317 0.03425,-1.08102 0.975833,-2.65441 -0.138831,-3.38793 -0.301484,-0.88427 -0.871601,-2.7745 -2.073948,-1.98855 -0.990698,1.23785 -0.082,2.93289 -0.15531,4.36974 -0.07281,0.99266 0.791378,3.36526 -0.92524,3.04015 -1.533123,0.0347 -2.764882,-1.09867 -2.946028,-2.57663 -1.748552,-0.64253 -0.994753,-2.63152 -1.170316,-4.04515 -0.229543,-1.51396 -1.648354,-2.42318 -2.344272,-3.70562 -1.44723,-1.62322 -2.262166,1.06776 -1.506896,2.15899 0.294102,1.32219 0.994568,2.66144 0.828854,4.01934 -1.045292,-0.0435 -1.919633,-1.55492 -2.78328,-2.25902 -1.101341,-0.63748 -2.061015,-1.8877 -3.389256,-1.91295 -0.995045,-0.24353 -2.521784,0.23455 -1.247738,1.26616 0.697482,1.15173 1.467726,2.27854 2.325041,3.32992 0.905817,0.82032 2.322469,1.28658 2.356444,2.7235 -0.740993,0.80437 -3.781778,0.3225 -2.73537,1.89771 1.310492,0.91861 3.154692,0.10254 4.462122,-0.43368 1.010585,-0.80486 3.094787,-1.69551 3.992851,-0.19746 0.572876,0.85665 2.096224,2.61036 0.81807,3.4127 -1.138602,0.29656 -2.221356,0.75771 -3.388723,0.95339 -0.646701,0.50951 -1.986982,0.8961 -1.955238,1.82489 1.441559,0.73227 3.001023,0.0286 4.386126,-0.4729 1.621365,-0.44185 2.859488,-1.58909 4.318236,-2.32433 1.036869,-0.90977 2.206858,0.5628 3.046743,1.13523 0.615909,0.71242 2.912759,2.31916 1.100606,2.91888 -1.348995,0.4658 -2.884026,0.8296 -3.63514,2.16827 -0.321904,1.27738 1.447815,1.24112 2.159521,0.79466 1.391077,-0.49663 2.657104,-1.2585 3.997994,-1.84375 0.350115,-1.25458 1.413241,-1.15437 2.311649,-0.73439 1.725981,-0.18845 3.253751,0.95955 4.870391,1.39517 1.21135,0.10532 1.90648,0.98727 2.49981,1.79638 0.69458,-1.09073 1.76969,-1.90621 3.14251,-1.51105 l 0.0583,-0.031 -0.0145,-0.0689 0,0 z"
       style="fill:#76a458;fill-opacity:1"
       inkscape:export-xdpi="352.94"
       inkscape:export-ydpi="352.94" />
    <text
       sodipodi:linespacing="125%"
       id="text4669"
       y="906.63104"
       x="69.640511"
       style="font-style:normal;font-variant:normal;font-weight:800;font-stretch:normal;font-size:19.29881096px;line-height:125%;font-family:'07TetsubinGothic';-inkscape-font-specification:'07TetsubinGothic, Ultra-Bold';text-align:start;letter-spacing:0px;word-spacing:0px;writing-mode:lr-tb;text-anchor:start;fill:#76a458;fill-opacity:1;stroke:none;stroke-width:1px;stroke-linecap:butt;stroke-linejoin:miter;stroke-opacity:1"
       xml:space="preserve"
       inkscape:export-xdpi="352.94"
       inkscape:export-ydpi="352.94"><tspan
         y="906.63104"
         x="69.640511"
         id="tspan4671"
         sodipodi:role="line">rucola</tspan></text>
    <path
       style="fill:#76a458;fill-opacity:1"
       d="m 93.967219,932.59245 c -0.42209,-0.74772 1.8773,-0.31797 1.68563,-1.61642 0.45106,-0.27178 0.94126,1.08577 1.71193,0.44806 1.97583,-0.15685 4.071431,-0.72733 5.492341,-2.18023 0.57116,-0.87518 -0.88934,-1.73227 0.15152,-2.60811 -0.11311,-1.31457 -0.16678,-2.6304 0.0272,-3.94903 0.30768,-0.90668 1.87245,-3.09295 2.44334,-1.27075 0.18536,1.3705 0.17687,2.71071 -0.20557,4.04944 -0.15767,0.83381 -0.58418,2.291 0.80546,1.62127 1.35524,-0.3723 3.19803,-0.43508 3.90567,-1.85246 0.71395,-1.43063 -0.19857,-2.8742 0.24737,-4.35317 -0.0343,-1.08102 -0.97583,-2.65441 0.13883,-3.38793 0.30149,-0.88427 0.8716,-2.7745 2.07395,-1.98855 0.9907,1.23785 0.082,2.93289 0.15531,4.36974 0.0728,0.99266 -0.79138,3.36526 0.92524,3.04015 1.53312,0.0347 2.76488,-1.09867 2.94603,-2.57663 1.74855,-0.64253 0.99475,-2.63152 1.17031,-4.04515 0.22955,-1.51396 1.64836,-2.42318 2.34428,-3.70562 1.44723,-1.62322 2.26216,1.06776 1.50689,2.15899 -0.2941,1.32219 -0.99457,2.66144 -0.82885,4.01934 1.04529,-0.0435 1.91963,-1.55492 2.78328,-2.25902 1.10134,-0.63748 2.06101,-1.8877 3.38925,-1.91295 0.99505,-0.24353 2.52179,0.23455 1.24774,1.26616 -0.69748,1.15173 -1.46772,2.27854 -2.32504,3.32992 -0.90582,0.82032 -2.32247,1.28658 -2.35644,2.7235 0.74099,0.80437 3.78177,0.3225 2.73537,1.89771 -1.3105,0.91861 -3.1547,0.10254 -4.46213,-0.43368 -1.01058,-0.80486 -3.09478,-1.69551 -3.99285,-0.19746 -0.57287,0.85665 -2.09622,2.61036 -0.81807,3.4127 1.13861,0.29656 2.22136,0.75771 3.38873,0.95339 0.6467,0.50951 1.98698,0.8961 1.95523,1.82489 -1.44155,0.73227 -3.00102,0.0286 -4.38612,-0.4729 -1.62137,-0.44185 -2.85949,-1.58909 -4.31824,-2.32433 -1.03687,-0.90977 -2.20685,0.5628 -3.04674,1.13523 -0.61591,0.71242 -2.91276,2.31916 -1.10061,2.91888 1.349,0.4658 2.88403,0.8296 3.63514,2.16827 0.32191,1.27738 -1.44781,1.24112 -2.15952,0.79466 -1.39107,-0.49663 -2.6571,-1.2585 -3.99799,-1.84375 -0.35012,-1.25458 -1.41324,-1.15437 -2.31165,-0.73439 -1.72598,-0.18845 -3.25375,0.95955 -4.870391,1.39517 -1.21135,0.10532 -1.90648,0.98727 -2.49981,1.79638 -0.69458,-1.09073 -1.76969,-1.90621 -3.14251,-1.51105 l -0.0583,-0.031 0.0145,-0.0689 0,0 z"
       id="path4675"
       inkscape:connector-curvature="0"
       inkscape:export-xdpi="352.94"
       inkscape:export-ydpi="352.94" />
    <rect
       style="opacity:1;fill:#76a458;fill-opacity:1;stroke:#76a458;stroke-width:0.61415249;stroke-linecap:round;stroke-linejoin:round;stroke-miterlimit:4;stroke-dasharray:none;stroke-opacity:1"
       id="rect4910"
       width="59.385849"
       height="0.38584751"
       x="71.163414"
       y="889.38312"
       rx="0"
       ry="0"
       inkscape:export-xdpi="352.94"
       inkscape:export-ydpi="352.94" />
    <rect
       ry="0"
       rx="0"
       y="910.2428"
       x="71.163414"
       height="0.38584751"
       width="59.385849"
       id="rect4912"
       style="opacity:1;fill:#76a458;fill-opacity:1;stroke:#76a458;stroke-width:0.61415249;stroke-linecap:round;stroke-linejoin:round;stroke-miterlimit:4;stroke-dasharray:none;stroke-opacity:1"
       inkscape:export-xdpi="352.94"
       inkscape:export-ydpi="352.94" />
    <path
       sodipodi:type="star"
       style="opacity:1;fill:#76a458;fill-opacity:1;stroke:none;stroke-width:2;stroke-linecap:round;stroke-linejoin:round;stroke-miterlimit:4;stroke-dasharray:none;stroke-opacity:1"
       id="path4914"
       sodipodi:sides="5"
       sodipodi:cx="100"
       sodipodi:cy="879.36218"
       sodipodi:r1="7.0044627"
       sodipodi:r2="3.5022314"
       sodipodi:arg1="0.607802"
       sodipodi:arg2="1.2361205"
       inkscape:flatsided="false"
       inkscape:rounded="0"
       inkscape:randomized="0"
       d="m 105.75,883.36218 -4.59965,-0.69208 -3.177728,3.39673 -0.763159,-4.58839 -4.212452,-1.97256 4.127989,-2.1437 0.574293,-4.61583 3.314397,3.26351 4.56738,-0.88018 -2.07958,4.16065 z"
       inkscape:transform-center-x="-0.01632083"
       inkscape:transform-center-y="-0.44280431"
       transform="matrix(0.64474773,0.23220573,-0.23220573,0.64474773,240.55817,289.24224)"
       inkscape:export-xdpi="352.94"
       inkscape:export-ydpi="352.94" />
    <path
       transform="matrix(0.64474773,0.23220573,-0.23220573,0.64474773,255.77953,291.36356)"
       inkscape:transform-center-y="-0.44280431"
       inkscape:transform-center-x="-0.016319509"
       d="m 105.75,883.36218 -4.59965,-0.69208 -3.177728,3.39673 -0.763159,-4.58839 -4.212452,-1.97256 4.127989,-2.1437 0.574293,-4.61583 3.314397,3.26351 4.56738,-0.88018 -2.07958,4.16065 z"
       inkscape:randomized="0"
       inkscape:rounded="0"
       inkscape:flatsided="false"
       sodipodi:arg2="1.2361205"
       sodipodi:arg1="0.607802"
       sodipodi:r2="3.5022314"
       sodipodi:r1="7.0044627"
       sodipodi:cy="879.36218"
       sodipodi:cx="100"
       sodipodi:sides="5"
       id="path4916"
       style="opacity:1;fill:#76a458;fill-opacity:1;stroke:none;stroke-width:2;stroke-linecap:round;stroke-linejoin:round;stroke-miterlimit:4;stroke-dasharray:none;stroke-opacity:1"
       sodipodi:type="star"
       inkscape:export-xdpi="352.94"
       inkscape:export-ydpi="352.94" />
    <path
       sodipodi:type="star"
       style="opacity:1;fill:#76a458;fill-opacity:1;stroke:none;stroke-width:2;stroke-linecap:round;stroke-linejoin:round;stroke-miterlimit:4;stroke-dasharray:none;stroke-opacity:1"
       id="path4918"
       sodipodi:sides="5"
       sodipodi:cx="100"
       sodipodi:cy="879.36218"
       sodipodi:r1="7.0044627"
       sodipodi:r2="3.5022314"
       sodipodi:arg1="0.607802"
       sodipodi:arg2="1.2361205"
       inkscape:flatsided="false"
       inkscape:rounded="0"
       inkscape:randomized="0"
       d="m 105.75,883.36218 -4.59965,-0.69208 -3.177728,3.39673 -0.763159,-4.58839 -4.212452,-1.97256 4.127989,-2.1437 0.574293,-4.61583 3.314397,3.26351 4.56738,-0.88018 -2.07958,4.16065 z"
       inkscape:transform-center-x="-0.016325429"
       inkscape:transform-center-y="-0.44280431"
       transform="matrix(0.64474773,0.23220573,-0.23220573,0.64474773,225.3368,291.36356)"
       inkscape:export-xdpi="352.94"
       inkscape:export-ydpi="352.94" />
    <text
       xml:space="preserve"
       style="font-style:normal;font-variant:normal;font-weight:normal;font-stretch:normal;font-size:10px;line-height:125%;font-family:Keifont;-inkscape-font-specification:'Keifont, Normal';text-align:start;letter-spacing:0px;word-spacing:0px;writing-mode:lr-tb;text-anchor:start;fill:#ffffff;fill-opacity:1;stroke:none;stroke-width:1px;stroke-linecap:butt;stroke-linejoin:miter;stroke-opacity:1"
       id="text4925"
       sodipodi:linespacing="125%"
       inkscape:export-xdpi="352.94"
       inkscape:export-ydpi="352.94"><textPath
         xlink:href="#circle4929"
         id="textPath4935"><tspan
   id="tspan4927"
   style="font-style:normal;font-variant:normal;font-weight:normal;font-stretch:normal;font-size:10px;line-height:125%;font-family:Keifont;-inkscape-font-specification:'Keifont, Normal';text-align:start;writing-mode:lr-tb;text-anchor:start;fill:#ffffff">PREMIUM</tspan></textPath></text>
    <path
       style="opacity:0.5;fill:none;fill-opacity:1;stroke:none"
       d="m 78.151259,871.93628 a 37.96357,37.96357 0 0 1 53.130661,7.72004 37.96357,37.96357 0 0 1 -7.72004,53.13066 37.96357,37.96357 0 0 1 -53.130655,-7.72004 37.96357,37.96357 0 0 1 7.720034,-53.13066 z"
       id="circle4929"
       inkscape:connector-curvature="0"
       inkscape:export-xdpi="352.94"
       inkscape:export-ydpi="352.94" />
    <path
       style="opacity:0.5;fill:none;fill-opacity:1;stroke:none"
       d="m 55.401336,907.04111 c 1.899648,25.61056 28.31185,45.60956 53.471914,40.35113 25.83447,-3.77 43.82694,-32.53128 35.93518,-57.41426 -6.33237,-25.32625 -36.74459,-40.35771 -60.714654,-30.02275 -18.775053,7.11915 -30.892879,27.14706 -28.69244,47.08588 z"
       id="path4957"
       inkscape:connector-curvature="0"
       inkscape:export-xdpi="352.94"
       inkscape:export-ydpi="352.94" />
    <text
       sodipodi:linespacing="125%"
       id="text4961"
       style="font-style:normal;font-variant:normal;font-weight:normal;font-stretch:normal;font-size:10px;line-height:125%;font-family:Keifont;-inkscape-font-specification:'Keifont, Normal';text-align:start;letter-spacing:0px;word-spacing:0px;writing-mode:lr-tb;text-anchor:start;fill:#ffffff;fill-opacity:1;stroke:none;stroke-width:1px;stroke-linecap:butt;stroke-linejoin:miter;stroke-opacity:1"
       xml:space="preserve"
       inkscape:export-xdpi="352.94"
       inkscape:export-ydpi="352.94"><textPath
         xlink:href="#path4957"
         id="textPath4968"
         dx="-2.5 0 0 0 0 0 0 0 4">RUNTIME CONFIGURATION</textPath></text>
    <g
       id="g4980"
       inkscape:export-xdpi="352.94"
       inkscape:export-ydpi="352.94">
      <path
         sodipodi:type="star"
         style="opacity:1;fill:#ffffff;fill-opacity:1;stroke:none;stroke-width:2;stroke-linecap:round;stroke-linejoin:round;stroke-miterlimit:4;stroke-dasharray:none;stroke-opacity:1"
         id="path4974"
         sodipodi:sides="5"
         sodipodi:cx="100"
         sodipodi:cy="879.36218"
         sodipodi:r1="7.0044627"
         sodipodi:r2="3.5022314"
         sodipodi:arg1="0.607802"
         sodipodi:arg2="1.2361205"
         inkscape:flatsided="false"
         inkscape:rounded="0"
         inkscape:randomized="0"
         d="m 105.75,883.36218 -4.59965,-0.69208 -3.177728,3.39673 -0.763159,-4.58839 -4.212452,-1.97256 4.127989,-2.1437 0.574293,-4.61583 3.314397,3.26351 4.56738,-0.88018 -2.07958,4.16065 z"
         inkscape:transform-center-x="-0.01632083"
         inkscape:transform-center-y="-0.44280431"
         transform="matrix(0.64474773,0.23220573,-0.23220573,0.64474773,198.80817,305.36356)" />
      <path
         transform="matrix(0.51596581,0.45099714,-0.45099714,0.51596581,414.83325,374.73036)"
         inkscape:transform-center-y="0.10296031"
         inkscape:transform-center-x="-0.35931221"
         d="m 105.75,883.36218 -4.59965,-0.69208 -3.177728,3.39673 -0.763159,-4.58839 -4.212452,-1.97256 4.127989,-2.1437 0.574293,-4.61583 3.314397,3.26351 4.56738,-0.88018 -2.07958,4.16065 z"
         inkscape:randomized="0"
         inkscape:rounded="0"
         inkscape:flatsided="false"
         sodipodi:arg2="1.2361205"
         sodipodi:arg1="0.607802"
         sodipodi:r2="3.5022314"
         sodipodi:r1="7.0044627"
         sodipodi:cy="879.36218"
         sodipodi:cx="100"
         sodipodi:sides="5"
         id="path4976"
         style="opacity:1;fill:#ffffff;fill-opacity:1;stroke:none;stroke-width:2;stroke-linecap:round;stroke-linejoin:round;stroke-miterlimit:4;stroke-dasharray:none;stroke-opacity:1"
         sodipodi:type="star" />
      <path
         sodipodi:type="star"
         style="opacity:1;fill:#ffffff;fill-opacity:1;stroke:none;stroke-width:2;stroke-linecap:round;stroke-linejoin:round;stroke-miterlimit:4;stroke-dasharray:none;stroke-opacity:1"
         id="path4978"
         sodipodi:sides="5"
         sodipodi:cx="100"
         sodipodi:cy="879.36218"
         sodipodi:r1="7.0044627"
         sodipodi:r2="3.5022314"
         sodipodi:arg1="0.607802"
         sodipodi:arg2="1.2361205"
         inkscape:flatsided="false"
         inkscape:rounded="0"
         inkscape:randomized="0"
         d="m 105.75,883.36218 -4.59965,-0.69208 -3.177728,3.39673 -0.763159,-4.58839 -4.212452,-1.97256 4.127989,-2.1437 0.574293,-4.61583 3.314397,3.26351 4.56738,-0.88018 -2.07958,4.16065 z"
         inkscape:transform-center-x="-0.27453754"
         inkscape:transform-center-y="-0.18933673"
         transform="matrix(0.59441706,0.34100952,-0.34100952,0.59441706,303.26917,326.74206)" />
    </g>
    <g
       id="g4985"
       transform="matrix(-1,0,0,1,201.41997,0)"
       inkscape:export-xdpi="352.94"
       inkscape:export-ydpi="352.94">
      <path
         transform="matrix(0.64474773,0.23220573,-0.23220573,0.64474773,198.80817,305.36356)"
         inkscape:transform-center-y="-0.44280431"
         inkscape:transform-center-x="-0.01632083"
         d="m 105.75,883.36218 -4.59965,-0.69208 -3.177728,3.39673 -0.763159,-4.58839 -4.212452,-1.97256 4.127989,-2.1437 0.574293,-4.61583 3.314397,3.26351 4.56738,-0.88018 -2.07958,4.16065 z"
         inkscape:randomized="0"
         inkscape:rounded="0"
         inkscape:flatsided="false"
         sodipodi:arg2="1.2361205"
         sodipodi:arg1="0.607802"
         sodipodi:r2="3.5022314"
         sodipodi:r1="7.0044627"
         sodipodi:cy="879.36218"
         sodipodi:cx="100"
         sodipodi:sides="5"
         id="path4987"
         style="opacity:1;fill:#ffffff;fill-opacity:1;stroke:none;stroke-width:2;stroke-linecap:round;stroke-linejoin:round;stroke-miterlimit:4;stroke-dasharray:none;stroke-opacity:1"
         sodipodi:type="star" />
      <path
         sodipodi:type="star"
         style="opacity:1;fill:#ffffff;fill-opacity:1;stroke:none;stroke-width:2;stroke-linecap:round;stroke-linejoin:round;stroke-miterlimit:4;stroke-dasharray:none;stroke-opacity:1"
         id="path4989"
         sodipodi:sides="5"
         sodipodi:cx="100"
         sodipodi:cy="879.36218"
         sodipodi:r1="7.0044627"
         sodipodi:r2="3.5022314"
         sodipodi:arg1="0.607802"
         sodipodi:arg2="1.2361205"
         inkscape:flatsided="false"
         inkscape:rounded="0"
         inkscape:randomized="0"
         d="m 105.75,883.36218 -4.59965,-0.69208 -3.177728,3.39673 -0.763159,-4.58839 -4.212452,-1.97256 4.127989,-2.1437 0.574293,-4.61583 3.314397,3.26351 4.56738,-0.88018 -2.07958,4.16065 z"
         inkscape:transform-center-x="-0.35931221"
         inkscape:transform-center-y="0.10296031"
         transform="matrix(0.51596581,0.45099714,-0.45099714,0.51596581,414.83325,374.73036)" />
      <path
         transform="matrix(0.59441706,0.34100952,-0.34100952,0.59441706,303.26917,326.74206)"
         inkscape:transform-center-y="-0.18933673"
         inkscape:transform-center-x="-0.27453754"
         d="m 105.75,883.36218 -4.59965,-0.69208 -3.177728,3.39673 -0.763159,-4.58839 -4.212452,-1.97256 4.127989,-2.1437 0.574293,-4.61583 3.314397,3.26351 4.56738,-0.88018 -2.07958,4.16065 z"
         inkscape:randomized="0"
         inkscape:rounded="0"
         inkscape:flatsided="false"
         sodipodi:arg2="1.2361205"
         sodipodi:arg1="0.607802"
         sodipodi:r2="3.5022314"
         sodipodi:r1="7.0044627"
         sodipodi:cy="879.36218"
         sodipodi:cx="100"
         sodipodi:sides="5"
         id="path4991"
         style="opacity:1;fill:#ffffff;fill-opacity:1;stroke:none;stroke-width:2;stroke-linecap:round;stroke-linejoin:round;stroke-miterlimit:4;stroke-dasharray:none;stroke-opacity:1"
         sodipodi:type="star" />
    </g>
  </g>
</svg>
